<?xml version="1.0" ?>
<!DOCTYPE svg  PUBLIC '-//W3C//DTD SVG 1.1//EN'  'http://www.w3.org/Graphics/SVG/1.1/DTD/svg11.dtd'>
<!-- Uploaded to: SVG Repo, www.svgrepo.com, Generator: SVG Repo Mixer Tools -->
<svg fill="#000000" width="800px" height="800px" viewBox="0 0 32 32" style="fill-rule:evenodd;clip-rule:evenodd;stroke-linejoin:round;stroke-miterlimit:2;" version="1.1" xml:space="preserve" xmlns="http://www.w3.org/2000/svg" xmlns:serif="http://www.serif.com/" xmlns:xlink="http://www.w3.org/1999/xlink">
<g id="Icon">
<path d="M26,28l0,-7c0,-0.552 -0.448,-1 -1,-1l-3,0l0,-5.038l-2,-0l0,5.038l-6,0c0,0 0,-12 0,-12c-0,0 1,0 1,0c0.552,-0 1,-0.448 1,-1c-0,-0.552 -0.448,-1 -1,-1l-2,0c-0.552,0 -1,0.448 -1,1l0,7l-5,0c-0.552,0 -1,0.448 -1,1l0,4l-2,0l0,-15l4,0l0,6c0,0 -1,0 -1,0c-0.552,0 -1,0.448 -1,1c0,0.552 0.448,1 1,1l2,0c0.552,0 1,-0.448 1,-1l0,-7l8,-0c0,-0 0,3 0,3c0,0.552 0.448,1 1,1l5,0l-0,2l-7,0c-0.552,0 -1,0.448 -1,1l0,6c0,0.552 0.448,1 1,1c0.552,-0 1,-0.448 1,-1l0,-5c-0,0 6,0 6,0c0,0 0,5 0,5l0.012,0.152l0.049,0.192l0.084,0.175l0.115,0.153l0.142,0.129l0.164,0.1l0.184,0.068l0.148,0.026l0.153,0.004l0.151,-0.019l0.187,-0.059l0.17,-0.092l0.148,-0.122l0.122,-0.148l0.092,-0.17l0.059,-0.187l0.019,-0.151l0.001,-0.051l0,-10c0,-0.552 -0.448,-1 -1,-1l-5,-0c0,0 0,-3 0,-3c0,-0.552 -0.448,-1 -1,-1l-16,-0c-0.552,-0 -1,0.448 -1,1l0,26c0,0.552 0.448,1 1,1l26,-0c0.552,0 1,-0.448 1,-1l0,-26c0,-0.552 -0.448,-1 -1,-1l-5.484,-0c-0.552,-0 -1,0.448 -1,1c-0,0.552 0.448,1 1,1l4.484,-0c0,0 0,24 0,24l-2,-0Zm-14,-12c0,-0 -4,-0 -4,-0l-0,8l9,-0l-0,2l-10,-0c-0.552,0 -1,-0.448 -1,-1l0,-4l-2,-0l0,7l16,-0l0,-3c0,-0.552 0.448,-1 1,-1c0.552,0 1,0.448 1,1l0,3l2,-0l0,-6l-11,-0c-0.552,0 -1,-0.448 -1,-1l0,-5Z"/>
</g>
</svg>